<?xml version="1.0" encoding="UTF-8" standalone="no"?>
<!DOCTYPE svg PUBLIC "-//W3C//DTD SVG 1.1//EN"
 "http://www.w3.org/Graphics/SVG/1.1/DTD/svg11.dtd">
<!-- Generated by graphviz version 12.1.1 (20240910.0053)
 -->
<!-- Title: INFRA Pages: 1 -->
<svg width="672pt" height="188pt"
 viewBox="0.00 0.00 672.23 188.00" xmlns="http://www.w3.org/2000/svg" xmlns:xlink="http://www.w3.org/1999/xlink">
<g id="graph0" class="graph" transform="scale(1 1) rotate(0) translate(4 184)">
<title>INFRA</title>
<polygon fill="white" stroke="none" points="-4,4 -4,-184 668.23,-184 668.23,4 -4,4"/>
<!-- Firebase Hosting -->
<g id="node1" class="node">
<title>Firebase Hosting</title>
<path fill="#e78f81" stroke="black" stroke-width="2" d="M123.04,-180C123.04,-180 12,-180 12,-180 6,-180 0,-174 0,-168 0,-168 0,-120 0,-120 0,-114 6,-108 12,-108 12,-108 123.04,-108 123.04,-108 129.04,-108 135.04,-114 135.04,-120 135.04,-120 135.04,-168 135.04,-168 135.04,-174 129.04,-180 123.04,-180"/>
<text text-anchor="middle" x="67.52" y="-148.2" font-family="Arial" font-size="14.00">Firebase Hosting</text>
<text text-anchor="middle" x="67.52" y="-131.4" font-family="Arial" font-size="14.00">(Firebase::Hosting)</text>
</g>
<!-- Firebase Functions -->
<g id="node2" class="node">
<title>Firebase Functions</title>
<path fill="#b7e0ff" stroke="black" stroke-width="2" d="M285.65,-72C285.65,-72 161.39,-72 161.39,-72 155.39,-72 149.39,-66 149.39,-60 149.39,-60 149.39,-12 149.39,-12 149.39,-6 155.39,0 161.39,0 161.39,0 285.65,0 285.65,0 291.65,0 297.65,-6 297.65,-12 297.65,-12 297.65,-60 297.65,-60 297.65,-66 291.65,-72 285.65,-72"/>
<text text-anchor="middle" x="223.52" y="-40.2" font-family="Arial" font-size="14.00">Firebase Functions</text>
<text text-anchor="middle" x="223.52" y="-23.4" font-family="Arial" font-size="14.00">(Firebase::Functions)</text>
</g>
<!-- Firebase Hosting&#45;&gt;Firebase Functions -->
<g id="edge1" class="edge">
<title>Firebase Hosting&#45;&gt;Firebase Functions</title>
<path fill="none" stroke="black" d="M119.47,-107.7C133.21,-98.37 148.17,-88.2 162.35,-78.56"/>
<polygon fill="black" stroke="black" points="163.98,-81.69 170.28,-73.17 160.05,-75.9 163.98,-81.69"/>
</g>
<!-- Firebase Realtime Database -->
<g id="node3" class="node">
<title>Firebase Realtime Database</title>
<path fill="#ffcfb3" stroke="black" stroke-width="2" d="M664.23,-173.45C664.23,-177.07 620.88,-180 567.52,-180 514.16,-180 470.81,-177.07 470.81,-173.45 470.81,-173.45 470.81,-114.55 470.81,-114.55 470.81,-110.93 514.16,-108 567.52,-108 620.88,-108 664.23,-110.93 664.23,-114.55 664.23,-114.55 664.23,-173.45 664.23,-173.45"/>
<path fill="none" stroke="black" stroke-width="2" d="M664.23,-173.45C664.23,-169.84 620.88,-166.91 567.52,-166.91 514.16,-166.91 470.81,-169.84 470.81,-173.45"/>
<text text-anchor="middle" x="567.52" y="-148.2" font-family="Arial" font-size="14.00">Firebase Realtime Database</text>
<text text-anchor="middle" x="567.52" y="-131.4" font-family="Arial" font-size="14.00">(Firebase::Database)</text>
</g>
<!-- sendEmail -->
<g id="node4" class="node">
<title>sendEmail</title>
<path fill="#b7e0ff" stroke="black" stroke-width="2" d="M282.15,-180C282.15,-180 164.89,-180 164.89,-180 158.89,-180 152.89,-174 152.89,-168 152.89,-168 152.89,-120 152.89,-120 152.89,-114 158.89,-108 164.89,-108 164.89,-108 282.15,-108 282.15,-108 288.15,-108 294.15,-114 294.15,-120 294.15,-120 294.15,-168 294.15,-168 294.15,-174 288.15,-180 282.15,-180"/>
<text text-anchor="middle" x="223.52" y="-148.2" font-family="Arial" font-size="14.00">sendEmail</text>
<text text-anchor="middle" x="223.52" y="-131.4" font-family="Arial" font-size="14.00">(Firebase::Function)</text>
</g>
<!-- sendEmail&#45;&gt;Firebase Functions -->
<g id="edge2" class="edge">
<title>sendEmail&#45;&gt;Firebase Functions</title>
<path fill="none" stroke="black" d="M223.52,-107.7C223.52,-99.93 223.52,-91.57 223.52,-83.43"/>
<polygon fill="black" stroke="black" points="227.02,-83.66 223.52,-73.66 220.02,-83.66 227.02,-83.66"/>
</g>
<!-- api -->
<g id="node5" class="node">
<title>api</title>
<path fill="#b7e0ff" stroke="black" stroke-width="2" d="M441.15,-180C441.15,-180 323.89,-180 323.89,-180 317.89,-180 311.89,-174 311.89,-168 311.89,-168 311.89,-120 311.89,-120 311.89,-114 317.89,-108 323.89,-108 323.89,-108 441.15,-108 441.15,-108 447.15,-108 453.15,-114 453.15,-120 453.15,-120 453.15,-168 453.15,-168 453.15,-174 447.15,-180 441.15,-180"/>
<text text-anchor="middle" x="382.52" y="-148.2" font-family="Arial" font-size="14.00">api</text>
<text text-anchor="middle" x="382.52" y="-131.4" font-family="Arial" font-size="14.00">(Firebase::Function)</text>
</g>
<!-- api&#45;&gt;Firebase Functions -->
<g id="edge3" class="edge">
<title>api&#45;&gt;Firebase Functions</title>
<path fill="none" stroke="black" d="M329.58,-107.7C315.57,-98.37 300.32,-88.2 285.87,-78.56"/>
<polygon fill="black" stroke="black" points="288.03,-75.8 277.76,-73.16 284.14,-81.62 288.03,-75.8"/>
</g>
</g>
</svg>
